<svg width="12" height="21" viewBox="0 0 12 21" fill="none" xmlns="http://www.w3.org/2000/svg">
<path d="M6.02018 20.9167C2.85352 20.9167 0.291016 18.3542 0.291016 15.1875L0.291016 4.25C0.291016 1.94792 2.1556 0.0833311 4.45768 0.0833311C6.75977 0.0833311 8.62435 1.94792 8.62435 4.25L8.62435 13.1042C8.62435 14.5417 7.45768 15.7083 6.02018 15.7083C4.58268 15.7083 3.41602 14.5417 3.41602 13.1042L3.41602 5.29167H5.49935V13.1979C5.49935 13.7708 6.54102 13.7708 6.54102 13.1979V4.25C6.54102 3.10417 5.60352 2.16667 4.45768 2.16667C3.31185 2.16667 2.37435 3.10417 2.37435 4.25L2.37435 15.1875C2.37435 17.1979 4.00977 18.8333 6.02018 18.8333C8.0306 18.8333 9.66602 17.1979 9.66602 15.1875L9.66602 5.29167H11.7493L11.7493 15.1875C11.7493 18.3542 9.18685 20.9167 6.02018 20.9167Z" fill="#000F8A"/>
</svg>
