<svg width="1280" height="646" viewBox="0 0 1280 646" fill="none" xmlns="http://www.w3.org/2000/svg">
<path opacity="0.5" d="M930 195.544C1052.8 339.944 1237.83 334.711 1315 314.044L1397 369.044C1412.83 408.544 1444.5 489.344 1444.5 496.544C1444.5 503.744 1384.83 548.211 1355 569.544C797.333 601.711 -272.4 615.744 -89.9998 414.544C138 163.044 289.5 354.044 408 126.044C526.5 -101.956 776.5 15.0442 930 195.544Z" fill="#E4E7FF"/>
<path opacity="0.5" d="M501 400.044C255.8 66.0436 36.5 160.877 -42.5 250.044L-113.5 400.044L-42.5 575.044C240.833 655.877 746.2 734.044 501 400.044Z" fill="#C5CAF3"/>
</svg>
