<svg width="99" height="99" viewBox="0 0 99 99" fill="none" xmlns="http://www.w3.org/2000/svg">
<circle cx="49.5" cy="49.5" r="49.5" fill="#DEAA51"/>
<path d="M26.9453 54.176C26.9453 53.408 26.6253 52.856 25.9853 52.52C25.3453 52.168 24.2733 51.952 22.7693 51.872C20.3213 51.696 18.5773 51.248 17.5373 50.528C16.4973 49.808 15.9773 48.68 15.9773 47.144C15.9773 45.608 16.6093 44.344 17.8733 43.352C19.1533 42.36 20.8013 41.864 22.8173 41.864C24.1773 41.864 25.4093 42.088 26.5133 42.536C27.6333 42.968 28.6493 43.64 29.5613 44.552L27.8573 46.688C27.1693 46.016 26.3773 45.496 25.4813 45.128C24.5853 44.744 23.6653 44.552 22.7213 44.552C21.6013 44.552 20.6973 44.776 20.0093 45.224C19.3373 45.656 19.0013 46.216 19.0013 46.904C19.0013 47.624 19.3213 48.144 19.9613 48.464C20.6013 48.784 21.6813 48.984 23.2013 49.064C25.5853 49.208 27.3053 49.664 28.3613 50.432C29.4173 51.184 29.9453 52.36 29.9453 53.96C29.9453 55.528 29.2893 56.816 27.9773 57.824C26.6813 58.832 24.9853 59.336 22.8893 59.336C21.3053 59.336 19.8893 59.088 18.6413 58.592C17.4093 58.096 16.3053 57.336 15.3293 56.312L16.9613 54.152C17.8413 55 18.7693 55.632 19.7453 56.048C20.7373 56.448 21.8173 56.648 22.9853 56.648C24.1853 56.648 25.1453 56.416 25.8653 55.952C26.5853 55.488 26.9453 54.896 26.9453 54.176ZM32.4462 55.256V49.664H30.8622V47.144H32.4462V43.784H35.3262V47.144H37.9662V49.664H35.3262V54.968C35.3262 55.496 35.4382 55.88 35.6622 56.12C35.8862 56.36 36.2382 56.48 36.7182 56.48H37.9662V59H36.2382C34.8942 59 33.9262 58.704 33.3342 58.112C32.7422 57.52 32.4462 56.568 32.4462 55.256ZM45.6263 57.032C46.2823 57.032 46.9063 56.888 47.4983 56.6C48.1063 56.312 48.6583 55.896 49.1543 55.352L50.6663 56.984C50.0103 57.768 49.2263 58.368 48.3143 58.784C47.4183 59.184 46.4343 59.384 45.3623 59.384C43.4743 59.384 41.9463 58.808 40.7783 57.656C39.6103 56.488 39.0263 54.968 39.0263 53.096C39.0263 51.304 39.6183 49.808 40.8023 48.608C41.9863 47.408 43.4583 46.808 45.2183 46.808C46.9783 46.808 48.3943 47.376 49.4663 48.512C50.5543 49.632 51.0983 51.12 51.0983 52.976C51.0983 53.136 51.0903 53.312 51.0743 53.504C51.0583 53.68 51.0343 53.864 51.0023 54.056H41.9783C42.1383 54.968 42.5463 55.696 43.2023 56.24C43.8583 56.768 44.6663 57.032 45.6263 57.032ZM45.2183 49.112C44.3863 49.112 43.6823 49.376 43.1063 49.904C42.5303 50.416 42.1543 51.128 41.9783 52.04H48.2423C48.1143 51.128 47.7783 50.416 47.2343 49.904C46.6903 49.376 46.0183 49.112 45.2183 49.112ZM55.6748 63.32H52.7948V47.144H55.5788V48.656C56.0908 48.08 56.6908 47.64 57.3788 47.336C58.0828 47.032 58.8268 46.88 59.6108 46.88C61.2588 46.88 62.6268 47.456 63.7148 48.608C64.8188 49.76 65.3708 51.232 65.3708 53.024C65.3708 54.848 64.7948 56.352 63.6428 57.536C62.5068 58.704 61.0908 59.288 59.3948 59.288C58.6908 59.288 58.0188 59.168 57.3788 58.928C56.7388 58.672 56.1708 58.312 55.6748 57.848V63.32ZM59.0828 49.328C58.0908 49.328 57.2588 49.688 56.5868 50.408C55.9148 51.128 55.5788 52.024 55.5788 53.096C55.5788 54.168 55.9068 55.056 56.5628 55.76C57.2348 56.464 58.0588 56.816 59.0348 56.816C60.0588 56.816 60.8828 56.472 61.5068 55.784C62.1468 55.096 62.4668 54.192 62.4668 53.072C62.4668 51.952 62.1468 51.048 61.5068 50.36C60.8828 49.672 60.0748 49.328 59.0828 49.328ZM83.5739 59H71.0459V56.696L76.7099 51.656C78.0059 50.488 78.8859 49.584 79.3499 48.944C79.8139 48.288 80.0459 47.592 80.0459 46.856C80.0459 46.152 79.7819 45.568 79.2539 45.104C78.7419 44.64 78.0859 44.408 77.2859 44.408C76.2779 44.408 75.4859 44.72 74.9099 45.344C74.3499 45.968 74.0459 46.872 73.9979 48.056H71.0459C71.0779 46.152 71.6539 44.64 72.7739 43.52C73.9099 42.384 75.4219 41.816 77.3099 41.816C79.0379 41.816 80.4299 42.272 81.4859 43.184C82.5419 44.096 83.0699 45.304 83.0699 46.808C83.0699 47.912 82.7419 48.936 82.0859 49.88C81.4459 50.824 80.1899 52.104 78.3179 53.72L75.2219 56.384H83.5739V59Z" fill="white"/>
</svg>
