<svg width="99" height="99" viewBox="0 0 99 99" fill="none" xmlns="http://www.w3.org/2000/svg">
<circle cx="49.5" cy="49.5" r="49.5" fill="#DEAA51"/>
<path d="M27.7696 54.176C27.7696 53.408 27.4496 52.856 26.8096 52.52C26.1696 52.168 25.0976 51.952 23.5936 51.872C21.1456 51.696 19.4016 51.248 18.3616 50.528C17.3216 49.808 16.8016 48.68 16.8016 47.144C16.8016 45.608 17.4336 44.344 18.6976 43.352C19.9776 42.36 21.6256 41.864 23.6416 41.864C25.0016 41.864 26.2336 42.088 27.3376 42.536C28.4576 42.968 29.4736 43.64 30.3856 44.552L28.6816 46.688C27.9936 46.016 27.2016 45.496 26.3056 45.128C25.4096 44.744 24.4896 44.552 23.5456 44.552C22.4256 44.552 21.5216 44.776 20.8336 45.224C20.1616 45.656 19.8256 46.216 19.8256 46.904C19.8256 47.624 20.1456 48.144 20.7856 48.464C21.4256 48.784 22.5056 48.984 24.0256 49.064C26.4096 49.208 28.1296 49.664 29.1856 50.432C30.2416 51.184 30.7696 52.36 30.7696 53.96C30.7696 55.528 30.1136 56.816 28.8016 57.824C27.5056 58.832 25.8096 59.336 23.7136 59.336C22.1296 59.336 20.7136 59.088 19.4656 58.592C18.2336 58.096 17.1296 57.336 16.1536 56.312L17.7856 54.152C18.6656 55 19.5936 55.632 20.5696 56.048C21.5616 56.448 22.6416 56.648 23.8096 56.648C25.0096 56.648 25.9696 56.416 26.6896 55.952C27.4096 55.488 27.7696 54.896 27.7696 54.176ZM33.2704 55.256V49.664H31.6864V47.144H33.2704V43.784H36.1504V47.144H38.7904V49.664H36.1504V54.968C36.1504 55.496 36.2624 55.88 36.4864 56.12C36.7104 56.36 37.0624 56.48 37.5424 56.48H38.7904V59H37.0624C35.7184 59 34.7504 58.704 34.1584 58.112C33.5664 57.52 33.2704 56.568 33.2704 55.256ZM46.4506 57.032C47.1066 57.032 47.7306 56.888 48.3226 56.6C48.9306 56.312 49.4826 55.896 49.9786 55.352L51.4906 56.984C50.8346 57.768 50.0506 58.368 49.1386 58.784C48.2426 59.184 47.2586 59.384 46.1866 59.384C44.2986 59.384 42.7706 58.808 41.6026 57.656C40.4346 56.488 39.8506 54.968 39.8506 53.096C39.8506 51.304 40.4426 49.808 41.6266 48.608C42.8106 47.408 44.2826 46.808 46.0426 46.808C47.8026 46.808 49.2186 47.376 50.2906 48.512C51.3786 49.632 51.9226 51.12 51.9226 52.976C51.9226 53.136 51.9146 53.312 51.8986 53.504C51.8826 53.68 51.8586 53.864 51.8266 54.056H42.8026C42.9626 54.968 43.3706 55.696 44.0266 56.24C44.6826 56.768 45.4906 57.032 46.4506 57.032ZM46.0426 49.112C45.2106 49.112 44.5066 49.376 43.9306 49.904C43.3546 50.416 42.9786 51.128 42.8026 52.04H49.0666C48.9386 51.128 48.6026 50.416 48.0586 49.904C47.5146 49.376 46.8426 49.112 46.0426 49.112ZM56.4991 63.32H53.6191V47.144H56.4031V48.656C56.9151 48.08 57.5151 47.64 58.2031 47.336C58.9071 47.032 59.6511 46.88 60.4351 46.88C62.0831 46.88 63.4511 47.456 64.5391 48.608C65.6431 49.76 66.1951 51.232 66.1951 53.024C66.1951 54.848 65.6191 56.352 64.4671 57.536C63.3311 58.704 61.9151 59.288 60.2191 59.288C59.5151 59.288 58.8431 59.168 58.2031 58.928C57.5631 58.672 56.9951 58.312 56.4991 57.848V63.32ZM59.9071 49.328C58.9151 49.328 58.0831 49.688 57.4111 50.408C56.7391 51.128 56.4031 52.024 56.4031 53.096C56.4031 54.168 56.7311 55.056 57.3871 55.76C58.0591 56.464 58.8831 56.816 59.8591 56.816C60.8831 56.816 61.7071 56.472 62.3311 55.784C62.9711 55.096 63.2911 54.192 63.2911 53.072C63.2911 51.952 62.9711 51.048 62.3311 50.36C61.7071 49.672 60.8991 49.328 59.9071 49.328ZM84.6861 53.48C84.6861 55.176 84.0621 56.584 82.8141 57.704C81.5661 58.824 79.9741 59.384 78.0381 59.384C76.5661 59.384 75.2781 59.072 74.1741 58.448C73.0861 57.824 72.2701 56.936 71.7261 55.784L73.9101 54.224C74.3901 55.072 74.9821 55.72 75.6861 56.168C76.4061 56.6 77.2141 56.816 78.1101 56.816C79.1501 56.816 79.9981 56.512 80.6541 55.904C81.3261 55.28 81.6621 54.496 81.6621 53.552C81.6621 52.64 81.3421 51.912 80.7021 51.368C80.0621 50.824 79.2301 50.552 78.2061 50.552C77.5341 50.552 76.8861 50.696 76.2621 50.984C75.6381 51.256 75.0541 51.656 74.5101 52.184L72.4221 51.824L72.3501 51.704L72.9741 42.2H83.5341V44.84H75.4941L75.1821 49.064C75.7101 48.712 76.2861 48.448 76.9101 48.272C77.5501 48.08 78.2221 47.984 78.9261 47.984C80.5901 47.984 81.9661 48.488 83.0541 49.496C84.1421 50.504 84.6861 51.832 84.6861 53.48Z" fill="white"/>
</svg>
