<svg width="99" height="99" viewBox="0 0 99 99" fill="none" xmlns="http://www.w3.org/2000/svg">
<circle cx="49.5" cy="49.5" r="49.5" fill="#DEAA51"/>
<path d="M31.1211 54.176C31.1211 53.408 30.8011 52.856 30.1611 52.52C29.5211 52.168 28.4491 51.952 26.9451 51.872C24.4971 51.696 22.7531 51.248 21.7131 50.528C20.6731 49.808 20.1531 48.68 20.1531 47.144C20.1531 45.608 20.7851 44.344 22.0491 43.352C23.3291 42.36 24.9771 41.864 26.9931 41.864C28.3531 41.864 29.5851 42.088 30.6891 42.536C31.8091 42.968 32.8251 43.64 33.7371 44.552L32.0331 46.688C31.3451 46.016 30.5531 45.496 29.6571 45.128C28.7611 44.744 27.8411 44.552 26.8971 44.552C25.7771 44.552 24.8731 44.776 24.1851 45.224C23.5131 45.656 23.1771 46.216 23.1771 46.904C23.1771 47.624 23.4971 48.144 24.1371 48.464C24.7771 48.784 25.8571 48.984 27.3771 49.064C29.7611 49.208 31.4811 49.664 32.5371 50.432C33.5931 51.184 34.1211 52.36 34.1211 53.96C34.1211 55.528 33.4651 56.816 32.1531 57.824C30.8571 58.832 29.1611 59.336 27.0651 59.336C25.4811 59.336 24.0651 59.088 22.8171 58.592C21.5851 58.096 20.4811 57.336 19.5051 56.312L21.1371 54.152C22.0171 55 22.9451 55.632 23.9211 56.048C24.9131 56.448 25.9931 56.648 27.1611 56.648C28.3611 56.648 29.3211 56.416 30.0411 55.952C30.7611 55.488 31.1211 54.896 31.1211 54.176ZM36.622 55.256V49.664H35.038V47.144H36.622V43.784H39.502V47.144H42.142V49.664H39.502V54.968C39.502 55.496 39.614 55.88 39.838 56.12C40.062 56.36 40.414 56.48 40.894 56.48H42.142V59H40.414C39.07 59 38.102 58.704 37.51 58.112C36.918 57.52 36.622 56.568 36.622 55.256ZM49.8021 57.032C50.4581 57.032 51.0821 56.888 51.6741 56.6C52.2821 56.312 52.8341 55.896 53.3301 55.352L54.8421 56.984C54.1861 57.768 53.4021 58.368 52.4901 58.784C51.5941 59.184 50.6101 59.384 49.5381 59.384C47.6501 59.384 46.1221 58.808 44.9541 57.656C43.7861 56.488 43.2021 54.968 43.2021 53.096C43.2021 51.304 43.7941 49.808 44.9781 48.608C46.1621 47.408 47.6341 46.808 49.3941 46.808C51.1541 46.808 52.5701 47.376 53.6421 48.512C54.7301 49.632 55.2741 51.12 55.2741 52.976C55.2741 53.136 55.2661 53.312 55.2501 53.504C55.2341 53.68 55.2101 53.864 55.1781 54.056H46.1541C46.3141 54.968 46.7221 55.696 47.3781 56.24C48.0341 56.768 48.8421 57.032 49.8021 57.032ZM49.3941 49.112C48.5621 49.112 47.8581 49.376 47.2821 49.904C46.7061 50.416 46.3301 51.128 46.1541 52.04H52.4181C52.2901 51.128 51.9541 50.416 51.4101 49.904C50.8661 49.376 50.1941 49.112 49.3941 49.112ZM59.8506 63.32H56.9706V47.144H59.7546V48.656C60.2666 48.08 60.8666 47.64 61.5546 47.336C62.2586 47.032 63.0026 46.88 63.7866 46.88C65.4346 46.88 66.8026 47.456 67.8906 48.608C68.9946 49.76 69.5466 51.232 69.5466 53.024C69.5466 54.848 68.9706 56.352 67.8186 57.536C66.6826 58.704 65.2666 59.288 63.5706 59.288C62.8666 59.288 62.1946 59.168 61.5546 58.928C60.9146 58.672 60.3466 58.312 59.8506 57.848V63.32ZM63.2586 49.328C62.2666 49.328 61.4346 49.688 60.7626 50.408C60.0906 51.128 59.7546 52.024 59.7546 53.096C59.7546 54.168 60.0826 55.056 60.7386 55.76C61.4106 56.464 62.2346 56.816 63.2106 56.816C64.2346 56.816 65.0586 56.472 65.6826 55.784C66.3226 55.096 66.6426 54.192 66.6426 53.072C66.6426 51.952 66.3226 51.048 65.6826 50.36C65.0586 49.672 64.2506 49.328 63.2586 49.328ZM77.4777 44.816H74.9337V42.2H80.4537V59H77.4777V44.816Z" fill="white"/>
</svg>
