<svg width="99" height="99" viewBox="0 0 99 99" fill="none" xmlns="http://www.w3.org/2000/svg">
<circle cx="49.5" cy="49.5" r="49.5" fill="#DEAA51"/>
<path d="M27.8164 54.176C27.8164 53.408 27.4964 52.856 26.8564 52.52C26.2164 52.168 25.1444 51.952 23.6404 51.872C21.1924 51.696 19.4484 51.248 18.4084 50.528C17.3684 49.808 16.8484 48.68 16.8484 47.144C16.8484 45.608 17.4804 44.344 18.7444 43.352C20.0244 42.36 21.6724 41.864 23.6884 41.864C25.0484 41.864 26.2804 42.088 27.3844 42.536C28.5044 42.968 29.5204 43.64 30.4324 44.552L28.7284 46.688C28.0404 46.016 27.2484 45.496 26.3524 45.128C25.4564 44.744 24.5364 44.552 23.5924 44.552C22.4724 44.552 21.5684 44.776 20.8804 45.224C20.2084 45.656 19.8724 46.216 19.8724 46.904C19.8724 47.624 20.1924 48.144 20.8324 48.464C21.4724 48.784 22.5524 48.984 24.0724 49.064C26.4564 49.208 28.1764 49.664 29.2324 50.432C30.2884 51.184 30.8164 52.36 30.8164 53.96C30.8164 55.528 30.1604 56.816 28.8484 57.824C27.5524 58.832 25.8564 59.336 23.7604 59.336C22.1764 59.336 20.7604 59.088 19.5124 58.592C18.2804 58.096 17.1764 57.336 16.2004 56.312L17.8324 54.152C18.7124 55 19.6404 55.632 20.6164 56.048C21.6084 56.448 22.6884 56.648 23.8564 56.648C25.0564 56.648 26.0164 56.416 26.7364 55.952C27.4564 55.488 27.8164 54.896 27.8164 54.176ZM33.3173 55.256V49.664H31.7333V47.144H33.3173V43.784H36.1973V47.144H38.8373V49.664H36.1973V54.968C36.1973 55.496 36.3093 55.88 36.5333 56.12C36.7573 56.36 37.1093 56.48 37.5893 56.48H38.8373V59H37.1093C35.7653 59 34.7973 58.704 34.2053 58.112C33.6133 57.52 33.3173 56.568 33.3173 55.256ZM46.4974 57.032C47.1534 57.032 47.7774 56.888 48.3694 56.6C48.9774 56.312 49.5294 55.896 50.0254 55.352L51.5374 56.984C50.8814 57.768 50.0974 58.368 49.1854 58.784C48.2894 59.184 47.3054 59.384 46.2334 59.384C44.3454 59.384 42.8174 58.808 41.6494 57.656C40.4814 56.488 39.8974 54.968 39.8974 53.096C39.8974 51.304 40.4894 49.808 41.6734 48.608C42.8574 47.408 44.3294 46.808 46.0894 46.808C47.8494 46.808 49.2654 47.376 50.3374 48.512C51.4254 49.632 51.9694 51.12 51.9694 52.976C51.9694 53.136 51.9614 53.312 51.9454 53.504C51.9294 53.68 51.9054 53.864 51.8734 54.056H42.8494C43.0094 54.968 43.4174 55.696 44.0734 56.24C44.7294 56.768 45.5374 57.032 46.4974 57.032ZM46.0894 49.112C45.2574 49.112 44.5534 49.376 43.9774 49.904C43.4014 50.416 43.0254 51.128 42.8494 52.04H49.1134C48.9854 51.128 48.6494 50.416 48.1054 49.904C47.5614 49.376 46.8894 49.112 46.0894 49.112ZM56.5459 63.32H53.6659V47.144H56.4499V48.656C56.9619 48.08 57.5619 47.64 58.2499 47.336C58.9539 47.032 59.6979 46.88 60.4819 46.88C62.1299 46.88 63.4979 47.456 64.5859 48.608C65.6899 49.76 66.2419 51.232 66.2419 53.024C66.2419 54.848 65.6659 56.352 64.5139 57.536C63.3779 58.704 61.9619 59.288 60.2659 59.288C59.5619 59.288 58.8899 59.168 58.2499 58.928C57.6099 58.672 57.0419 58.312 56.5459 57.848V63.32ZM59.9539 49.328C58.9619 49.328 58.1299 49.688 57.4579 50.408C56.7859 51.128 56.4499 52.024 56.4499 53.096C56.4499 54.168 56.7779 55.056 57.4339 55.76C58.1059 56.464 58.9299 56.816 59.9059 56.816C60.9299 56.816 61.7539 56.472 62.3779 55.784C63.0179 55.096 63.3379 54.192 63.3379 53.072C63.3379 51.952 63.0179 51.048 62.3779 50.36C61.7539 49.672 60.9459 49.328 59.9539 49.328ZM78.301 56.792C79.261 56.792 80.045 56.528 80.653 56C81.277 55.472 81.589 54.808 81.589 54.008C81.589 53.192 81.277 52.56 80.653 52.112C80.029 51.664 79.149 51.44 78.013 51.44H76.741V49.136H77.893C78.949 49.136 79.773 48.912 80.365 48.464C80.957 48.016 81.253 47.416 81.253 46.664C81.253 45.992 80.973 45.448 80.413 45.032C79.869 44.616 79.149 44.408 78.253 44.408C77.277 44.408 76.493 44.688 75.901 45.248C75.325 45.792 75.005 46.552 74.941 47.528H72.061C72.109 45.864 72.709 44.496 73.861 43.424C75.029 42.352 76.541 41.816 78.397 41.816C80.125 41.816 81.533 42.248 82.621 43.112C83.725 43.976 84.277 45.056 84.277 46.352C84.277 47.248 84.037 48.032 83.557 48.704C83.077 49.36 82.381 49.88 81.469 50.264C82.541 50.6 83.333 51.104 83.845 51.776C84.357 52.432 84.613 53.28 84.613 54.32C84.613 55.776 84.013 56.984 82.813 57.944C81.613 58.904 80.085 59.384 78.229 59.384C76.261 59.384 74.693 58.84 73.525 57.752C72.373 56.664 71.781 55.176 71.749 53.288H74.629C74.677 54.392 75.021 55.256 75.661 55.88C76.317 56.488 77.197 56.792 78.301 56.792Z" fill="white"/>
</svg>
