<svg width="99" height="99" viewBox="0 0 99 99" fill="none" xmlns="http://www.w3.org/2000/svg">
<circle cx="49.5" cy="49.5" r="49.5" fill="#DEAA51"/>
<path d="M26.8164 54.176C26.8164 53.408 26.4964 52.856 25.8564 52.52C25.2164 52.168 24.1444 51.952 22.6404 51.872C20.1924 51.696 18.4484 51.248 17.4084 50.528C16.3684 49.808 15.8484 48.68 15.8484 47.144C15.8484 45.608 16.4804 44.344 17.7444 43.352C19.0244 42.36 20.6724 41.864 22.6884 41.864C24.0484 41.864 25.2804 42.088 26.3844 42.536C27.5044 42.968 28.5204 43.64 29.4324 44.552L27.7284 46.688C27.0404 46.016 26.2484 45.496 25.3524 45.128C24.4564 44.744 23.5364 44.552 22.5924 44.552C21.4724 44.552 20.5684 44.776 19.8804 45.224C19.2084 45.656 18.8724 46.216 18.8724 46.904C18.8724 47.624 19.1924 48.144 19.8324 48.464C20.4724 48.784 21.5524 48.984 23.0724 49.064C25.4564 49.208 27.1764 49.664 28.2324 50.432C29.2884 51.184 29.8164 52.36 29.8164 53.96C29.8164 55.528 29.1604 56.816 27.8484 57.824C26.5524 58.832 24.8564 59.336 22.7604 59.336C21.1764 59.336 19.7604 59.088 18.5124 58.592C17.2804 58.096 16.1764 57.336 15.2004 56.312L16.8324 54.152C17.7124 55 18.6404 55.632 19.6164 56.048C20.6084 56.448 21.6884 56.648 22.8564 56.648C24.0564 56.648 25.0164 56.416 25.7364 55.952C26.4564 55.488 26.8164 54.896 26.8164 54.176ZM32.3173 55.256V49.664H30.7333V47.144H32.3173V43.784H35.1973V47.144H37.8373V49.664H35.1973V54.968C35.1973 55.496 35.3093 55.88 35.5333 56.12C35.7573 56.36 36.1093 56.48 36.5893 56.48H37.8373V59H36.1093C34.7653 59 33.7973 58.704 33.2053 58.112C32.6133 57.52 32.3173 56.568 32.3173 55.256ZM45.4974 57.032C46.1534 57.032 46.7774 56.888 47.3694 56.6C47.9774 56.312 48.5294 55.896 49.0254 55.352L50.5374 56.984C49.8814 57.768 49.0974 58.368 48.1854 58.784C47.2894 59.184 46.3054 59.384 45.2334 59.384C43.3454 59.384 41.8174 58.808 40.6494 57.656C39.4814 56.488 38.8974 54.968 38.8974 53.096C38.8974 51.304 39.4894 49.808 40.6734 48.608C41.8574 47.408 43.3294 46.808 45.0894 46.808C46.8494 46.808 48.2654 47.376 49.3374 48.512C50.4254 49.632 50.9694 51.12 50.9694 52.976C50.9694 53.136 50.9614 53.312 50.9454 53.504C50.9294 53.68 50.9054 53.864 50.8734 54.056H41.8494C42.0094 54.968 42.4174 55.696 43.0734 56.24C43.7294 56.768 44.5374 57.032 45.4974 57.032ZM45.0894 49.112C44.2574 49.112 43.5534 49.376 42.9774 49.904C42.4014 50.416 42.0254 51.128 41.8494 52.04H48.1134C47.9854 51.128 47.6494 50.416 47.1054 49.904C46.5614 49.376 45.8894 49.112 45.0894 49.112ZM55.5459 63.32H52.6659V47.144H55.4499V48.656C55.9619 48.08 56.5619 47.64 57.2499 47.336C57.9539 47.032 58.6979 46.88 59.4819 46.88C61.1299 46.88 62.4979 47.456 63.5859 48.608C64.6899 49.76 65.2419 51.232 65.2419 53.024C65.2419 54.848 64.6659 56.352 63.5139 57.536C62.3779 58.704 60.9619 59.288 59.2659 59.288C58.5619 59.288 57.8899 59.168 57.2499 58.928C56.6099 58.672 56.0419 58.312 55.5459 57.848V63.32ZM58.9539 49.328C57.9619 49.328 57.1299 49.688 56.4579 50.408C55.7859 51.128 55.4499 52.024 55.4499 53.096C55.4499 54.168 55.7779 55.056 56.4339 55.76C57.1059 56.464 57.9299 56.816 58.9059 56.816C59.9299 56.816 60.7539 56.472 61.3779 55.784C62.0179 55.096 62.3379 54.192 62.3379 53.072C62.3379 51.952 62.0179 51.048 61.3779 50.36C60.7539 49.672 59.9459 49.328 58.9539 49.328ZM77.781 47.624C79.605 47.624 81.069 48.136 82.173 49.16C83.277 50.168 83.829 51.504 83.829 53.168C83.829 54.944 83.181 56.424 81.885 57.608C80.605 58.776 78.989 59.36 77.037 59.36C75.197 59.36 73.677 58.808 72.477 57.704C71.293 56.6 70.701 55.176 70.701 53.432C70.701 52.04 71.005 50.736 71.613 49.52C72.221 48.304 73.269 46.888 74.757 45.272L77.589 42.2H81.357V42.248L76.653 47.072C76.605 47.12 76.549 47.176 76.485 47.24C76.437 47.304 76.357 47.392 76.245 47.504C76.133 47.632 76.045 47.728 75.981 47.792C75.933 47.84 75.885 47.888 75.837 47.936C76.125 47.824 76.429 47.744 76.749 47.696C77.069 47.648 77.413 47.624 77.781 47.624ZM80.781 53.264C80.781 52.288 80.469 51.496 79.845 50.888C79.221 50.28 78.389 49.976 77.349 49.976C76.309 49.976 75.445 50.296 74.757 50.936C74.069 51.56 73.725 52.352 73.725 53.312C73.725 54.32 74.045 55.152 74.685 55.808C75.325 56.448 76.141 56.768 77.133 56.768C78.205 56.768 79.077 56.44 79.749 55.784C80.437 55.112 80.781 54.272 80.781 53.264Z" fill="white"/>
</svg>
