<svg width="99" height="99" viewBox="0 0 99 99" fill="none" xmlns="http://www.w3.org/2000/svg">
<circle cx="49.5" cy="49.5" r="49.5" fill="#DEAA51"/>
<path d="M26.2657 54.176C26.2657 53.408 25.9457 52.856 25.3057 52.52C24.6657 52.168 23.5937 51.952 22.0897 51.872C19.6417 51.696 17.8977 51.248 16.8577 50.528C15.8177 49.808 15.2977 48.68 15.2977 47.144C15.2977 45.608 15.9297 44.344 17.1937 43.352C18.4737 42.36 20.1217 41.864 22.1377 41.864C23.4977 41.864 24.7297 42.088 25.8337 42.536C26.9537 42.968 27.9697 43.64 28.8817 44.552L27.1777 46.688C26.4897 46.016 25.6977 45.496 24.8017 45.128C23.9057 44.744 22.9857 44.552 22.0417 44.552C20.9217 44.552 20.0177 44.776 19.3297 45.224C18.6577 45.656 18.3217 46.216 18.3217 46.904C18.3217 47.624 18.6417 48.144 19.2817 48.464C19.9217 48.784 21.0017 48.984 22.5217 49.064C24.9057 49.208 26.6257 49.664 27.6817 50.432C28.7377 51.184 29.2657 52.36 29.2657 53.96C29.2657 55.528 28.6097 56.816 27.2977 57.824C26.0017 58.832 24.3057 59.336 22.2097 59.336C20.6257 59.336 19.2097 59.088 17.9617 58.592C16.7297 58.096 15.6257 57.336 14.6497 56.312L16.2817 54.152C17.1617 55 18.0897 55.632 19.0657 56.048C20.0577 56.448 21.1377 56.648 22.3057 56.648C23.5057 56.648 24.4657 56.416 25.1857 55.952C25.9057 55.488 26.2657 54.896 26.2657 54.176ZM31.7665 55.256V49.664H30.1825V47.144H31.7665V43.784H34.6465V47.144H37.2865V49.664H34.6465V54.968C34.6465 55.496 34.7585 55.88 34.9825 56.12C35.2065 56.36 35.5585 56.48 36.0385 56.48H37.2865V59H35.5585C34.2145 59 33.2465 58.704 32.6545 58.112C32.0625 57.52 31.7665 56.568 31.7665 55.256ZM44.9467 57.032C45.6027 57.032 46.2267 56.888 46.8187 56.6C47.4267 56.312 47.9787 55.896 48.4747 55.352L49.9867 56.984C49.3307 57.768 48.5467 58.368 47.6347 58.784C46.7387 59.184 45.7547 59.384 44.6827 59.384C42.7947 59.384 41.2667 58.808 40.0987 57.656C38.9307 56.488 38.3467 54.968 38.3467 53.096C38.3467 51.304 38.9387 49.808 40.1227 48.608C41.3067 47.408 42.7787 46.808 44.5387 46.808C46.2987 46.808 47.7147 47.376 48.7867 48.512C49.8747 49.632 50.4187 51.12 50.4187 52.976C50.4187 53.136 50.4107 53.312 50.3947 53.504C50.3787 53.68 50.3547 53.864 50.3227 54.056H41.2987C41.4587 54.968 41.8667 55.696 42.5227 56.24C43.1787 56.768 43.9867 57.032 44.9467 57.032ZM44.5387 49.112C43.7067 49.112 43.0027 49.376 42.4267 49.904C41.8507 50.416 41.4747 51.128 41.2987 52.04H47.5627C47.4347 51.128 47.0987 50.416 46.5547 49.904C46.0107 49.376 45.3387 49.112 44.5387 49.112ZM54.9952 63.32H52.1152V47.144H54.8992V48.656C55.4112 48.08 56.0112 47.64 56.6992 47.336C57.4032 47.032 58.1472 46.88 58.9312 46.88C60.5792 46.88 61.9472 47.456 63.0352 48.608C64.1392 49.76 64.6912 51.232 64.6912 53.024C64.6912 54.848 64.1152 56.352 62.9632 57.536C61.8272 58.704 60.4112 59.288 58.7152 59.288C58.0112 59.288 57.3392 59.168 56.6992 58.928C56.0592 58.672 55.4912 58.312 54.9952 57.848V63.32ZM58.4032 49.328C57.4112 49.328 56.5792 49.688 55.9072 50.408C55.2352 51.128 54.8992 52.024 54.8992 53.096C54.8992 54.168 55.2272 55.056 55.8832 55.76C56.5552 56.464 57.3792 56.816 58.3552 56.816C59.3792 56.816 60.2032 56.472 60.8272 55.784C61.4672 55.096 61.7872 54.192 61.7872 53.072C61.7872 51.952 61.4672 51.048 60.8272 50.36C60.2032 49.672 59.3952 49.328 58.4032 49.328ZM78.8142 55.496H69.9342V53.168L77.5902 42.2H81.7902V53.024H84.5502V55.496H81.7902V59H78.8142V55.496ZM78.9342 44.48L73.0302 53.024H78.9342V44.48Z" fill="white"/>
</svg>
